<svg width="18" height="14" viewBox="0 0 18 14" fill="none" xmlns="http://www.w3.org/2000/svg">
<path d="M17.6484 4.96484C17.7188 4.89453 17.7891 4.88281 17.8594 4.92969C17.9531 4.97656 18 5.04688 18 5.14062V12.3125C18 12.7812 17.8359 13.1797 17.5078 13.5078C17.1797 13.8359 16.7812 14 16.3125 14H1.6875C1.21875 14 0.820312 13.8359 0.492188 13.5078C0.164063 13.1797 0 12.7812 0 12.3125V5.14062C0 5.04688 0.0351562 4.98828 0.105469 4.96484C0.199219 4.91797 0.28125 4.91797 0.351562 4.96484C1.125 5.55078 2.92969 6.875 5.76562 8.9375L6.11719 9.25391C6.67969 9.67578 7.125 9.98047 7.45312 10.168C8.01562 10.4727 8.53125 10.625 9 10.625C9.46875 10.625 9.98438 10.4609 10.5469 10.1328C10.8984 9.94531 11.3438 9.64062 11.8828 9.21875L12.2344 8.9375C15 6.94531 16.8047 5.62109 17.6484 4.96484ZM9 9.5C9.30469 9.5 9.67969 9.35938 10.125 9.07812C10.3828 8.9375 10.7461 8.67969 11.2148 8.30469L11.5664 8.05859C14.5195 5.92578 16.5 4.46094 17.5078 3.66406L17.6836 3.52344C17.8945 3.35937 18 3.13672 18 2.85547V2.1875C18 1.71875 17.8359 1.32031 17.5078 0.992188C17.1797 0.664063 16.7812 0.5 16.3125 0.5H1.6875C1.21875 0.5 0.820312 0.664063 0.492188 0.992188C0.164063 1.32031 0 1.71875 0 2.1875V2.85547C0 3.13672 0.105469 3.35937 0.316406 3.52344L0.5625 3.69922C1.59375 4.49609 3.55078 5.94922 6.43359 8.05859L6.78516 8.30469C7.25391 8.67969 7.61719 8.9375 7.875 9.07812C8.32031 9.35938 8.69531 9.5 9 9.5Z" fill="white"/>
</svg>
