<svg width="50" height="50" viewBox="0 0 50 50" fill="none" xmlns="http://www.w3.org/2000/svg">
<path d="M25 50C38.8071 50 50 38.8071 50 25C50 11.1929 38.8071 0 25 0C11.1929 0 0 11.1929 0 25C0 38.8071 11.1929 50 25 50Z" fill="white" fill-opacity="0.15"/>
<path d="M40 25C40 16.7148 33.2852 10 25 10C16.7148 10 10 16.7148 10 25C10 33.2852 16.7148 40 25 40C25.0879 40 25.1758 40 25.2637 39.9941V28.3223H22.041V24.5664H25.2637V21.8008C25.2637 18.5957 27.2207 16.8496 30.0801 16.8496C31.4512 16.8496 32.6289 16.9492 32.9688 16.9961V20.3477H31C29.4473 20.3477 29.1426 21.0859 29.1426 22.1699V24.5605H32.8633L32.377 28.3164H29.1426V39.4199C35.4121 37.6211 40 31.8496 40 25Z" fill="white"/>
</svg>
