<svg width="50" height="50" viewBox="0 0 50 50" fill="none" xmlns="http://www.w3.org/2000/svg">
<path d="M25 50C38.8071 50 50 38.8071 50 25C50 11.1929 38.8071 0 25 0C11.1929 0 0 11.1929 0 25C0 38.8071 11.1929 50 25 50Z" fill="white" fill-opacity="0.15"/>
<g clip-path="url(#clip0_77_14)">
<path d="M38.3183 38.0001V37.999H38.3245V28.8303C38.3245 24.3449 37.3589 20.8896 32.1152 20.8896C29.5943 20.8896 27.9027 22.273 27.212 23.5844H27.1391V21.3084H22.1672V37.999H27.3443V29.7344C27.3443 27.5584 27.7568 25.4542 30.4516 25.4542C33.1068 25.4542 33.1464 27.9376 33.1464 29.874V38.0001H38.3183Z" fill="white"/>
<path d="M13.4125 21.3093H18.5958V38H13.4125V21.3093Z" fill="white"/>
<path d="M16.0021 13.0718C14.3448 13.0718 13 14.4166 13 16.0739C13 17.7311 14.3448 19.1041 16.0021 19.1041C17.6594 19.1041 19.0042 17.7311 19.0042 16.0739C19.0031 14.4166 17.6583 13.0718 16.0021 13.0718Z" fill="white"/>
</g>
<defs>
<clipPath id="clip0_77_14">
<rect width="25" height="25" fill="white" transform="translate(13 13)"/>
</clipPath>
</defs>
</svg>
