<svg width="254" height="65" viewBox="0 0 254 65" fill="none" xmlns="http://www.w3.org/2000/svg">
<path fill-rule="evenodd" clip-rule="evenodd" d="M43 6.72217L35.9694 10.0367C31.6626 7.39619 26.8479 6.58407 21.7613 7.69342C18.1035 8.48903 14.9684 10.3294 12.3665 13.039C6.60421 19.0436 4.89781 29.3235 10.764 37.817C9.74524 40.0687 8.71159 42.346 7.51013 45C6.9948 44.3455 6.61906 43.8321 6.20471 43.3487C-6.5569 28.1376 1.38848 4.67911 20.7143 0.594477C28.483 -1.04628 35.5373 0.744594 41.8683 5.53026C42.2961 5.85301 42.6109 6.33187 42.9792 6.73869L43 6.72217Z" fill="#F89520"/>
<path fill-rule="evenodd" clip-rule="evenodd" d="M43.0405 7.0162C43.5197 7.35335 44.0759 7.62426 44.4693 8.03797C48.9925 12.6875 51.5203 18.213 51.9463 24.7102C52.8057 37.8048 43.2565 49.7922 29.6603 51.7562C26.6488 52.1906 23.2276 52.0507 21 51.2866C21.6202 49.1272 22.2425 46.96 22.8667 44.7849C31.8657 45.5903 38.6933 42.4484 42.9828 34.5437C44.2918 32.135 44.8657 29.4849 44.953 26.7508C45.0236 24.0871 44.5282 21.4385 43.499 18.9786C42.4636 16.4433 40.8499 14.2952 38.8161 12.2723C39.89 10.9752 40.912 9.75172 41.9223 8.51499C42.3216 8.02472 42.687 7.505 43.0671 7L43.0405 7.0162Z" fill="#F89520"/>
<path fill-rule="evenodd" clip-rule="evenodd" d="M17.7839 64.9849C16.0985 61.9879 15.1251 58.7082 14.5806 55.3196C12.6873 43.5252 15.4472 32.9541 22.5237 23.6139C23.409 22.4451 24.5455 21.4788 25.568 20.4294C25.9825 20.0061 26.4215 19.6099 26.8793 19.1729C26.7349 18.7419 26.6064 18.3624 26.4013 17.756L35 17L31.534 25.5766L30.3049 24.0055C29.3879 24.807 28.5402 25.4753 27.7704 26.2329C21.0708 32.8241 17.0112 40.8639 15.9714 50.4461C15.4791 54.81 15.9541 59.2339 17.3593 63.3745C17.5369 63.8992 17.6279 64.4572 17.7607 65L17.7839 64.9849Z" fill="#85858A"/>
<path fill-rule="evenodd" clip-rule="evenodd" d="M58 0.785308C57.4334 2.71742 56.1641 3.50273 54.8614 4.47813C54.3323 7.24697 53.7838 10.1218 53.2269 13.0402L51.7853 14C51.1298 11.6908 51.8617 9.27724 50.9521 6.9291L47.4677 8.88303C47.3288 9.44085 47.1747 10.0361 46.9789 10.812L45.9456 11.4353C45.7693 10.9055 45.636 10.5082 45.4804 10.047L44.568 9.88024C44.7541 9.53901 44.8985 9.27724 45.0763 8.94535L44 7.9419L45.0555 6.94157L46.5747 7.37941C47.6385 6.63306 48.8801 6.08614 49.9078 4.6355L44.8194 1.18108L46.2442 0L53.2046 2.13934C54.7906 1.47713 56.0974 0.113744 58 0.785308Z" fill="#85858A"/>
<path d="M58 17H62.7602V41.3593H77V46H58V17Z" fill="#F89520"/>
<path d="M80 35.6052V35.5204C80 29.2166 85.1155 24 92.0201 24C98.9247 24 104 29.1333 104 35.4372V35.5204C104 41.7819 98.8845 47 91.9381 47C85.0722 47.0015 80 41.8667 80 35.6052ZM98.8412 35.6052V35.5204C98.8412 31.6379 95.9851 28.4247 91.9351 28.4247C87.8 28.4247 85.1572 31.6046 85.1572 35.4372V35.5204C85.1572 39.3606 88.0134 42.6162 92.0201 42.6162C96.1984 42.6177 98.8412 39.4045 98.8412 35.6052Z" fill="#F89520"/>
<path d="M108.1 49.4831L109.996 45.8477C112.356 47.2459 114.886 48.0849 117.915 48.0849C122.464 48.0849 124.944 45.8477 124.944 41.6137V39.9764C123.09 42.2527 120.774 43.851 117.109 43.851C111.885 43.851 107 40.1764 107 33.9849V33.9052C107 27.6746 111.928 24 117.109 24C120.858 24 123.174 25.6373 124.902 27.5935V24.4448H130V41.2153C130 44.7696 129.031 47.4053 127.178 49.1629C125.156 51.0814 122.039 52 118.037 52C114.377 52 110.965 51.1205 108.1 49.4831ZM124.991 33.9791V33.8994C124.991 30.4219 122.001 28.0673 118.463 28.0673C114.926 28.0673 112.145 30.3856 112.145 33.8632V33.9443C112.145 37.4219 114.967 39.775 118.463 39.775C122.001 39.7764 124.991 37.3798 124.991 33.9849V33.9791Z" fill="#F89520"/>
<path d="M141.096 42.3612V45.5712H136V17H141.096V28.3581C142.741 26.2043 145.057 24.4836 148.638 24.4836C153.904 24.4836 159 28.3581 159 35.207V35.2766C159 42.1255 153.945 46 148.638 46C144.973 46.0014 142.655 44.2792 141.096 42.3612ZM153.82 35.2766V35.1985C153.82 31.2061 150.916 28.5838 147.458 28.5838C144 28.5838 140.966 31.2473 140.966 35.1999V35.2766C140.966 39.2689 144 41.8912 147.453 41.8912C150.954 41.8926 153.82 39.3484 153.82 35.2766Z" fill="#F89520"/>
<path d="M162 35.6052V35.5204C162 29.2166 167.115 24 174.02 24C180.925 24 186 29.1333 186 35.4372V35.5204C186 41.7819 180.885 47 173.938 47C167.072 47.0015 162 41.8667 162 35.6052ZM180.841 35.6052V35.5204C180.841 31.6379 177.985 28.4247 173.935 28.4247C169.8 28.4247 167.157 31.6046 167.157 35.4372V35.5204C167.157 39.3606 170.013 42.6162 174.02 42.6162C178.206 42.6177 180.835 39.4045 180.835 35.6052H180.841Z" fill="#F89520"/>
<path d="M189 35.6052V35.5204C189 29.2166 193.902 24 200.521 24C207.139 24 212 29.1333 212 35.4372V35.5204C212 41.7819 207.098 47 200.441 47C193.862 47.0015 189 41.8667 189 35.6052ZM207.058 35.6052V35.5204C207.058 31.6379 204.32 28.4247 200.439 28.4247C196.476 28.4247 193.944 31.6046 193.944 35.4372V35.5204C193.944 39.3606 196.681 42.6162 200.521 42.6162C204.524 42.6177 207.058 39.4045 207.058 35.6052Z" fill="#F89520"/>
<path d="M217 17H222.144V34.3202L231.454 25.0253H237.702L228.775 33.5665L238 46H232.051L225.292 36.9429L222.146 40.0008V46H217V17Z" fill="#F89520"/>
<path d="M242 24.4177H246.715V29.2813C248.001 26.0518 250.376 23.8454 254 24.0085V29.2413H253.727C249.598 29.2413 246.715 32.0586 246.715 37.7838V46H242V24.4177Z" fill="#F89520"/>
</svg>
